#tb 0: 1/25
#media_type 0: video
#codec_id 0: rawvideo
#dimensions 0: 720x480
#sar 0: 1/1
0,       3312,       3312,        1,  1382400, 0x00000000
0,       3312,       3312,        1,  1382400, 0xc637b893
0,       3436,       3436,        1,  1382400, 0x00000000
0,       3684,       3684,        1,  1382400, 0x4c2960ca
0,       3802,       3802,        1,  1382400, 0x00000000
0,       4520,       4520,        1,  1382400, 0x5fa18966
0,       4584,       4584,        1,  1382400, 0x00000000
0,       4586,       4586,        1,  1382400, 0x55f4b7b1
0,       4645,       4645,        1,  1382400, 0x00000000
0,       4648,       4648,        1,  1382400, 0xdfa4cf32
0,       4715,       4715,        1,  1382400, 0x00000000
0,       4717,       4717,        1,  1382400, 0x35023df8
0,       4748,       4748,        1,  1382400, 0x00000000
0,       4750,       4750,        1,  1382400, 0xed933219
0,       4792,       4792,        1,  1382400, 0x00000000
0,       4993,       4993,        1,  1382400, 0x1b26389a
0,       5027,       5027,        1,  1382400, 0x00000000
0,       5029,       5029,        1,  1382400, 0xf0c7028b
0,       5068,       5068,        1,  1382400, 0x00000000
0,       5070,       5070,        1,  1382400, 0x395f521d
0,       5117,       5117,        1,  1382400, 0x00000000
0,       5119,       5119,        1,  1382400, 0x1ea87415
0,       5168,       5168,        1,  1382400, 0x00000000
0,       5170,       5170,        1,  1382400, 0xc6effdc1
0,       5216,       5216,        1,  1382400, 0x00000000
0,       5218,       5218,        1,  1382400, 0xba6846f8
0,       5249,       5249,        1,  1382400, 0x00000000
0,       5251,       5251,        1,  1382400, 0x033c5d5b
0,       5289,       5289,        1,  1382400, 0x00000000
0,       5291,       5291,        1,  1382400, 0xef5abf66
0,       5358,       5358,        1,  1382400, 0x00000000
0,       5360,       5360,        1,  1382400, 0xec747954
0,       5429,       5429,        1,  1382400, 0x00000000
0,       5431,       5431,        1,  1382400, 0xfa34bcaf
0,       5490,       5490,        1,  1382400, 0x00000000
0,       5491,       5491,        1,  1382400, 0x8b7a709b
0,       5537,       5537,        1,  1382400, 0x00000000
0,       5588,       5588,        1,  1382400, 0xc333382f
0,       5647,       5647,        1,  1382400, 0x00000000
0,       5688,       5688,        1,  1382400, 0xabe5dfcf
0,       5770,       5770,        1,  1382400, 0x00000000
0,       5772,       5772,        1,  1382400, 0x56948101
0,       5826,       5826,        1,  1382400, 0x00000000
0,       5828,       5828,        1,  1382400, 0xb747834a
0,       5931,       5931,        1,  1382400, 0x00000000
0,       5933,       5933,        1,  1382400, 0x3448baad
0,       6001,       6001,        1,  1382400, 0x00000000
0,       6003,       6003,        1,  1382400, 0xaabe4f37
0,       6054,       6054,        1,  1382400, 0x00000000
0,       6839,       6839,        1,  1382400, 0x8a48cd6f
0,       6880,       6880,        1,  1382400, 0x00000000
0,       7386,       7386,        1,  1382400, 0x49518c43
0,       7419,       7419,        1,  1382400, 0x00000000
0,       7501,       7501,        1,  1382400, 0x4a72fa21
0,       7549,       7549,        1,  1382400, 0x00000000
0,       7551,       7551,        1,  1382400, 0xa82f7de8
0,       7589,       7589,        1,  1382400, 0x00000000
0,       7605,       7605,        1,  1382400, 0xeba0b5f3
0,       7647,       7647,        1,  1382400, 0x00000000
0,       7649,       7649,        1,  1382400, 0xd6a91770
0,       7697,       7697,        1,  1382400, 0x00000000
0,       7699,       7699,        1,  1382400, 0x222f827c
0,       7743,       7743,        1,  1382400, 0x00000000
0,       8032,       8032,        1,  1382400, 0x3270f4ff
0,       8082,       8082,        1,  1382400, 0x00000000
0,       8084,       8084,        1,  1382400, 0x40813cb3
0,       8115,       8115,        1,  1382400, 0x00000000
0,       8116,       8116,        1,  1382400, 0x9d8fde41
0,       8160,       8160,        1,  1382400, 0x00000000
0,       8180,       8180,        1,  1382400, 0xc6d7a701
0,       8207,       8207,        1,  1382400, 0x00000000
0,       8209,       8209,        1,  1382400, 0x9d45f2dc
0,       8247,       8247,        1,  1382400, 0x00000000
0,       8249,       8249,        1,  1382400, 0x8525ee40
0,       8278,       8278,        1,  1382400, 0x00000000
0,       8281,       8281,        1,  1382400, 0x5b26b98b
0,       8321,       8321,        1,  1382400, 0x00000000
0,       8323,       8323,        1,  1382400, 0x51be311f
0,       8367,       8367,        1,  1382400, 0x00000000
0,       8565,       8565,        1,  1382400, 0x00a4f2a3
0,       8611,       8611,        1,  1382400, 0x00000000
0,       8669,       8669,        1,  1382400, 0x40a445e8
0,       8708,       8708,        1,  1382400, 0x00000000
0,       8941,       8941,        1,  1382400, 0x43ef5128
0,       8994,       8994,        1,  1382400, 0x00000000
0,       8996,       8996,        1,  1382400, 0x3c3e3819
